<svg height="504pt" viewBox="-5 0 504 504.07311" width="504pt" xmlns="http://www.w3.org/2000/svg"><path d="m196.21875 257.289062.171875-.683593c.085937-1.449219.085937-2.816407.085937-4.265625.027344-13.449219-3.007812-26.726563-8.875-38.828125l1.363282.429687c41.011718-22.113281 60.023437-70.636718 44.949218-114.722656-15.070312-44.085938-59.808593-70.816406-105.773437-63.195312-45.960937 7.621093-79.679687 47.355468-79.71875 93.949218-.054687 15.769532 3.878906 31.296875 11.433594 45.140625l1.023437.339844c-27.160156 16.085937-43.804687 45.320313-43.773437 76.886719 0 1.449218 0 2.816406.085937 4.265625l.085938.425781c-4.175782.773438-8.015625 2.796875-11.011719 5.804688-3.6875 3.695312-5.902344 8.609374-6.2265625 13.824218-.0742187 6.035156 2.2968755 11.839844 6.5742185 16.101563 4.273438 4.257812 10.089844 6.605469 16.125 6.511719h-5.632812l72.371093 192.851562c2.710938 7.195312 9.597657 11.957031 17.289063 11.949219h.050781c7.683594 0 14.5625-4.757813 17.269532-11.949219l72.371093-192.851562h-4.265625c11.300782.019531 20.65625-8.773438 21.332032-20.054688.257812-10.519531-7.011719-19.734375-17.304688-21.929688zm0 0" fill="#b19046"/><path d="m196.476562 252.339844c0 1.449218 0 2.816406-.085937 4.265625l-.171875.683593c-1.757812-.449218-3.5625-.675781-5.375-.683593h-11.433594c-4.714844 0-8.535156 3.820312-8.535156 8.535156.023438 4.527344-1.792969 8.871094-5.035156 12.03125-4.144532 4.222656-10.199219 5.96875-15.957032 4.609375-7.949218-2.089844-13.421874-9.363281-13.226562-17.582031-.007812-4.1875-3.402344-7.582031-7.59375-7.59375h-18.003906c-4.714844 0-8.535156 3.820312-8.535156 8.535156v25.597656c-.003907 3-.800782 5.941407-2.304688 8.535157-.738281 1.292968-1.65625 2.46875-2.730469 3.5-3.160156 3.238281-7.503906 5.058593-12.03125 5.03125-9.425781 0-17.066406-7.640626-17.066406-17.066407v-25.597656c0-4.714844-3.820313-8.535156-8.535156-8.535156h-38.484375c-1.375.007812-2.746094.148437-4.09375.425781l-.085938-.425781c-.085937-1.449219-.085937-2.816407-.085937-4.265625-.03125-31.566406 16.613281-60.800782 43.773437-76.886719l18.605469 5.546875c3.511719 1.105469 5.921875 4.339844 5.972656 8.023438v16.382812c.003907 5.03125 2.226563 9.808594 6.074219 13.046875 3.851562 3.242187 8.933594 4.621094 13.894531 3.765625 8.429688-1.710938 14.40625-9.238281 14.164063-17.835938-.011719-2.648437 1.230468-5.140624 3.351562-6.722656 2.121094-1.585937 4.867188-2.066406 7.402344-1.300781l8.875 2.648437c3.554688 1.042969 5.988281 4.3125 5.972656 8.019532v6.914062c.03125 5.035156 2.277344 9.804688 6.136719 13.042969 3.863281 3.234375 8.949219 4.613281 13.914063 3.765625 8.265624-1.261719 14.324218-8.449219 14.167968-16.808594v-2.902344l8.191406 2.472657c5.867188 12.101562 8.902344 25.378906 8.875 38.828125zm0 0" fill="#f0c419"/><path d="m70.695312 299.273438h-47.957031c-6.035156.09375-11.851562-2.253907-16.125-6.511719-4.277343-4.261719-6.6484372-10.066407-6.5742185-16.101563.3242185-5.214844 2.5390625-10.128906 6.2265625-13.824218 2.996094-3.007813 6.835937-5.03125 11.011719-5.804688 1.347656-.277344 2.71875-.417969 4.09375-.425781h38.484375c4.714843 0 8.535156 3.820312 8.535156 8.535156v25.597656c.003906 3 .800781 5.941407 2.304687 8.535157zm0 0" fill="#e57e25"/><path d="m213.542969 279.21875c-.679688 11.28125-10.035157 20.074219-21.335938 20.054688h-91.988281c1.503906-2.59375 2.300781-5.535157 2.304688-8.535157v-25.597656c0-4.714844 3.820312-8.535156 8.535156-8.535156h18.003906c4.191406.011719 7.585938 3.40625 7.59375 7.59375-.195312 8.21875 5.277344 15.492187 13.226562 17.582031 5.757813 1.359375 11.8125-.386719 15.957032-4.609375 3.242187-3.160156 5.058594-7.503906 5.035156-12.03125 0-4.714844 3.820312-8.535156 8.535156-8.535156h11.433594c12.464844.09375 22.558594 10.148437 22.699219 22.613281zm0 0" fill="#e57e25"/><path d="m188.964844 213.941406-1.363282-.429687-8.191406-2.472657v2.902344c.15625 8.359375-5.902344 15.546875-14.167968 16.808594-4.964844.847656-10.050782-.53125-13.914063-3.765625-3.859375-3.238281-6.105469-8.007813-6.136719-13.042969v-6.914062c.015625-3.707032-2.417968-6.976563-5.972656-8.019532l-8.875-2.648437c-2.535156-.765625-5.28125-.285156-7.402344 1.300781-2.121094 1.582032-3.363281 4.074219-3.351562 6.722656.242187 8.597657-5.734375 16.125-14.164063 17.835938-4.960937.855469-10.042969-.523438-13.894531-3.765625-3.847656-3.238281-6.070312-8.015625-6.074219-13.046875v-16.382812c-.050781-3.683594-2.460937-6.917969-5.972656-8.023438l-18.605469-5.546875-1.023437-.339844c-7.554688-13.84375-11.488281-29.371093-11.433594-45.140625-.003906-46.640625 33.726563-86.4375 79.734375-94.078125 46.007812-7.644531 90.792969 19.113281 105.867188 63.25 15.074218 44.132813-3.988282 92.695313-45.058594 114.796875zm0 0" fill="#ff5364"/><path d="m136.675781 94.472656c0 9.429688-7.648437 17.074219-17.078125 17.074219-9.429687 0-17.074218-7.644531-17.074218-17.074219 0-9.429687 7.644531-17.074218 17.074218-17.074218 9.429688 0 17.078125 7.644531 17.078125 17.074218zm0 0" fill="#fb7b76"/><path d="m486.4375 128.605469h-118.878906l-8.863282-120.0625c.003907-3.195313-1.777343-6.125-4.617187-7.589844-2.835937-1.46875-6.253906-1.226563-8.859375.625-2.601562 1.847656-3.957031 4.996094-3.507812 8.160156l8.816406 118.867188h-32.726563l-10.390625-86.355469c-.867187-4.382812-4.964844-7.359375-9.398437-6.820312-4.4375.539062-7.707031 4.40625-7.5 8.867187l10.121093 84.308594h-18.398437c-2.332031.015625-4.558594.980469-6.167969 2.671875-1.609375 1.6875-2.460937 3.957031-2.363281 6.289062l4.007813 87.722656 11.949218 262.484376c.410156 9.125 7.933594 16.308593 17.066406 16.300781h155.222657c9.132812.007812 16.652343-7.175781 17.066406-16.300781l12.628906-276.648438 3.328125-73.558594c.097656-2.332031-.757812-4.601562-2.367187-6.289062-1.609375-1.691406-3.835938-2.65625-6.167969-2.671875zm-68.179688 100.105469c1.707032.453124 3.523438.757812 5.316407 1.09375-1.792969-.335938-3.59375-.640626-5.316407-1.09375zm-7.800781-2.457032c1.347657.484375 2.75.902344 4.140625 1.332032-1.390625-.4375-2.792968-.847657-4.105468-1.332032zm-54.152343-19.753906c-4.859376-.730469-9.765626-1.09375-14.675782-1.09375 4.910156-.003906 9.816406.359375 14.675782 1.09375zm-28.160157.066406c1.203125-.1875 2.398438-.339844 3.601563-.476562-1.246094.171875-2.441406.273437-3.644532.476562zm-42.351562 14.507813c1.042969-.53125 2.152343-1.042969 3.234375-1.570313-1.125.476563-2.269532.996094-3.277344 1.527344zm8.875-4.207031c1.304687-.589844 2.628906-1.136719 3.976562-1.707032-1.382812.527344-2.722656 1.082032-4.019531 1.664063zm10.148437-4.089844c1.203125-.441406 2.378906-.851563 3.609375-1.285156-1.265625.367187-2.460937.800781-3.652343 1.246093zm98.34375 10.550781c.855469.375 1.777344.722656 2.664063 1.089844-.886719-.359375-1.785157-.707031-2.664063-1.089844zm23.425782 7.046875c2.980468.414062 5.984374.625 8.992187.632812-3.007813-.003906-6.011719-.210937-8.992187-.625zm0 0" fill="#90bae1"/><path d="m491.644531 211.125-12.628906 276.648438c-.414063 9.125-7.933594 16.308593-17.066406 16.300781h-155.222657c-9.132812.007812-16.65625-7.175781-17.066406-16.300781l-11.949218-262.484376h.085937c10.375-5.957031 21.324219-10.84375 32.683594-14.59375l31.230469 260.269532c.519531 4.277344 4.140624 7.496094 8.449218 7.507812.34375.015625.6875-.015625 1.023438-.085937 2.253906-.253907 4.3125-1.398438 5.722656-3.175781 1.410156-1.777344 2.050781-4.042969 1.789062-6.296876l-31.488281-262.226562c4.757813-.855469 9.585938-1.28125 14.421875-1.28125 4.910156.003906 9.816406.375 14.675782 1.109375l19.542968 264.019531c.3125 4.480469 4.042969 7.949219 8.53125 7.9375h.597656c4.683594-.363281 8.195313-4.445312 7.851563-9.128906l-19.117187-258.648438c22.1875 7.511719 37.71875 20.3125 61.867187 20.3125 18.945313 0 40.535156-10.496093 56.066406-19.882812zm0 0" fill="#2980ba"/><path d="m494.972656 137.566406-3.328125 73.558594c-15.53125 9.386719-37.121093 19.882812-56.066406 19.882812-25.855469 0-41.898437-14.679687-66.816406-21.761718-8.8125-2.570313-17.953125-3.867188-27.132813-3.839844-7.835937.039062-15.636718 1.070312-23.210937 3.070312-14.238281 3.75-27.898438 9.402344-40.621094 16.8125h-.085937l-4.007813-87.722656c-.097656-2.332031.753906-4.601562 2.363281-6.289062 1.609375-1.691406 3.835938-2.65625 6.167969-2.671875h204.203125c2.332031.015625 4.558594.980469 6.167969 2.671875 1.609375 1.6875 2.464843 3.957031 2.367187 6.289062zm0 0" fill="#90bae1"/><path d="m358.695312 468.914062c.261719 2.253907-.378906 4.519532-1.789062 6.296876-1.410156 1.777343-3.46875 2.921874-5.722656 3.175781-.335938.070312-.679688.101562-1.023438.085937-4.308594-.011718-7.929687-3.230468-8.449218-7.507812l-31.230469-260.269532c2.558593-.765624 5.292969-1.535156 7.9375-2.21875 2.890625-.765624 5.824219-1.367187 8.789062-1.789062zm0 0" fill="#3d324c"/><path d="m327.207031 206.6875c-2.964843.421875-5.898437 1.023438-8.789062 1.789062-2.644531.683594-5.378907 1.453126-7.9375 2.21875l-19.96875-166.398437c-.207031-4.460937 3.0625-8.328125 7.5-8.867187 4.433593-.539063 8.53125 2.4375 9.398437 6.820312zm0 0" fill="#894b9d"/><path d="m392.828125 469.34375c.34375 4.683594-3.167969 8.765625-7.851563 9.128906h-.597656c-4.488281.011719-8.21875-3.457031-8.53125-7.9375l-19.542968-264.019531c4.207031.652344 8.367187 1.5625 12.457031 2.730469 1.707031.511718 3.246093.9375 4.867187 1.449218h.082032zm0 0" fill="#3d324c"/><path d="m373.628906 210.695312c-1.621094-.511718-3.160156-.9375-4.867187-1.449218-4.089844-1.167969-8.25-2.078125-12.457031-2.730469l-14.59375-196.777344c-.449219-3.164062.90625-6.3125 3.507812-8.160156 2.605469-1.851563 6.023438-2.09375 8.859375-.625 2.839844 1.464844 4.621094 4.394531 4.617187 7.589844zm0 0" fill="#894b9d"/><g fill="#90bae1"><path d="m452.664062 299.273438c0 9.429687-7.644531 17.074218-17.074218 17.074218-9.433594 0-17.078125-7.644531-17.078125-17.074218 0-9.429688 7.644531-17.074219 17.078125-17.074219 9.429687 0 17.074218 7.644531 17.074218 17.074219zm0 0"/><path d="m427.039062 359.007812c0 4.710938-3.820312 8.53125-8.535156 8.53125-4.710937 0-8.53125-3.820312-8.53125-8.53125 0-4.714843 3.820313-8.535156 8.53125-8.535156 4.714844 0 8.535156 3.820313 8.535156 8.535156zm0 0"/><path d="m452.664062 401.671875c0 4.714844-3.820312 8.535156-8.535156 8.535156-4.710937 0-8.53125-3.820312-8.53125-8.535156 0-4.710937 3.820313-8.53125 8.53125-8.53125 4.714844 0 8.535156 3.820313 8.535156 8.53125zm0 0"/></g></svg>