<?xml version="1.0" encoding="iso-8859-1"?>
<!-- Generator: Adobe Illustrator 19.0.0, SVG Export Plug-In . SVG Version: 6.00 Build 0)  -->
<svg version="1.1" id="Capa_1" xmlns="http://www.w3.org/2000/svg" xmlns:xlink="http://www.w3.org/1999/xlink" x="0px" y="0px"
	 viewBox="0 0 512 512" style="enable-background:new 0 0 512 512;" xml:space="preserve">
<circle style="fill:#4B74C6;" cx="256" cy="264.25" r="245"/>
<path style="fill:#A35826;" d="M325.31,162.25H91.164c-4.973,1.418-8.618,5.985-8.618,11.412v27.711
	c0,6.559,5.318,11.877,11.877,11.877h227.629c6.559,0,11.877-5.318,11.877-11.877v-27.711
	C333.929,168.235,330.283,163.668,325.31,162.25z"/>
<path style="fill:#7CD8A1;" d="M215.737,91.25V54.643c-2.376,0.717-4.893,1.107-7.5,1.107s-5.124-0.391-7.5-1.107V91.25H215.737z"/>
<g>
	<path style="fill:#EA2A3D;" d="M92.017,292.942c0.775-0.176,1.578-0.277,2.406-0.277h62.565L126.1,266.839H93.273
		c-4.672,1.864-7.978,6.422-7.978,11.758v3.166C85.296,286.607,88.02,290.813,92.017,292.942z"/>
	<path style="fill:#EA2A3D;" d="M322.052,292.665c0.828,0,1.631,0.102,2.406,0.277c3.997-2.13,6.721-6.335,6.721-11.18v-3.166
		c0-5.336-3.306-9.894-7.978-11.758h-79.883l-30.227,25.273c0.277,0.196,0.565,0.379,0.859,0.553L322.052,292.665L322.052,292.665z"
		/>
</g>
<path style="fill:#BF7E52;" d="M294.883,325.396c0-2.206,1.794-4,4-4h6.898c0.434,0,0.818-0.279,0.951-0.692
	c2.67-8.251,10.272-13.794,18.917-13.794h3.919c0.378,0,0.724-0.213,0.894-0.551c0.974-1.934,2.021-3.802,3.127-5.595
	c-1.253-5.217-5.937-9.099-11.537-9.099H213.369l-25.466,21.293c-0.841,0.703-1.976,1.091-3.194,1.091
	c-1.219,0-2.354-0.388-3.194-1.091l-25.466-21.293H94.423c-6.559,0-11.877,5.317-11.877,11.876v27.711
	c0,1.037,0.146,2.039,0.396,2.998h211.94L294.883,325.396L294.883,325.396z"/>
<g>
	<path style="fill:#A35826;" d="M118.073,291.665l-11.147,11.146c-2.791,2.793-2.791,7.317,0,10.108
		c1.396,1.397,3.226,2.094,5.055,2.094s3.658-0.697,5.054-2.094l21.257-21.255h-20.219V291.665z"/>
	<path style="fill:#A35826;" d="M155.791,291.665h-2.933l-11.146,11.146c-2.792,2.793-2.792,7.317,0,10.108
		c1.396,1.397,3.226,2.094,5.055,2.094s3.658-0.697,5.055-2.094l13.384-13.384L155.791,291.665z"/>
	<path style="fill:#A35826;" d="M222.431,291.665l-11.147,11.146c-2.791,2.793-2.791,7.317,0,10.108
		c1.395,1.397,3.226,2.094,5.055,2.094s3.658-0.697,5.056-2.094l21.255-21.255h-20.219V291.665z"/>
	<path style="fill:#A35826;" d="M257.216,291.665l-11.146,11.146c-2.792,2.793-2.792,7.317,0,10.108
		c1.395,1.397,3.226,2.094,5.055,2.094s3.658-0.697,5.055-2.094l21.256-21.255h-20.22V291.665z"/>
	<path style="fill:#A35826;" d="M292.002,291.665l-11.148,11.146c-2.79,2.793-2.79,7.317,0,10.108
		c1.397,1.397,3.227,2.094,5.056,2.094s3.657-0.697,5.055-2.094l21.256-21.255h-20.219V291.665z"/>
</g>
<g>
	<path style="fill:#3CBF7D;" d="M126.1,266.839H96.27c2.175,10.368,11.368,18.154,22.383,18.154c7.464,0,14.084-3.583,18.259-9.115
		L126.1,266.839z"/>
	<path style="fill:#3CBF7D;" d="M243.318,266.839l-7.479,6.253c3.886,7.086,11.398,11.901,20.05,11.901
		c8.98,0,16.748-5.178,20.49-12.708c3.743,7.53,11.51,12.708,20.49,12.708c11.014,0,20.207-7.786,22.382-18.154H243.318z"/>
</g>
<path style="fill:#FFD00D;" d="M124.798,266.839l56.075,46.887c2.11,1.764,5.562,1.764,7.672,0l56.075-46.887H124.798z"/>
<path style="fill:#F4BC4A;" d="M124.798,266.839l56.075,46.887c2.11,1.764,5.562,1.764,7.672,0l11.803-9.869l-44.273-37.018H124.798
	z"/>
<path style="fill:#EF8318;" d="M301.77,378.25v-30.316c0-0.553-0.447-1-1-1h-1.887c-2.206,0-4-1.794-4-4v-9.684H80.53
	c-5.241,0-9.53,4.288-9.53,9.529v35.471H301.77z"/>
<path style="fill:#DB722C;" d="M102.525,378.25v-35.471c0-5.241,4.289-9.529,9.53-9.529H80.53c-5.241,0-9.53,4.288-9.53,9.529
	v35.471H102.525z"/>
<path style="fill:#EF8318;" d="M80.53,212.563c-5.241,0-9.53,4.289-9.53,9.53v36.216c0,5.241,4.289,9.53,9.53,9.53h255.414
	c5.241,0,9.53-4.289,9.53-9.53v-36.216c0-5.241-4.289-9.53-9.53-9.53L80.53,212.563L80.53,212.563z"/>
<path style="fill:#DB722C;" d="M102.525,258.309v-36.216c0-5.241,4.289-9.53,9.53-9.53H80.53c-5.241,0-9.53,4.289-9.53,9.53v36.216
	c0,5.241,4.289,9.53,9.53,9.53h31.525C106.814,267.839,102.525,263.55,102.525,258.309z"/>
<path style="fill:#3CBF7D;" d="M131,212.563c1.33,11.366,10.987,20.188,22.711,20.188c7.918,0,14.895-4.023,19-10.137
	c4.105,6.113,11.082,10.137,19,10.137c8.057,0,15.138-4.167,19.211-10.463c4.073,6.296,11.154,10.463,19.211,10.463
	c7.918,0,14.895-4.023,19-10.137c4.105,6.113,11.082,10.137,19,10.137c11.724,0,21.381-8.821,22.711-20.188H131z"/>
<circle style="fill:#28A5A5;" cx="208.24" cy="29.75" r="27"/>
<path style="fill:#00C4B5;" d="M197,29.75c0-12.17,8.053-22.455,19.119-25.828c-2.494-0.76-5.14-1.172-7.882-1.172
	c-14.912,0-27,12.088-27,27s12.088,27,27,27c2.742,0,5.388-0.412,7.882-1.172C205.053,52.205,197,41.92,197,29.75z"/>
<g>
	<path style="fill:#994334;" d="M117.609,162.25l-10.684,10.683c-2.791,2.793-2.791,7.317,0,10.108
		c1.396,1.396,3.226,2.094,5.055,2.094s3.658-0.697,5.054-2.094l20.793-20.791H117.609z"/>
	<path style="fill:#994334;" d="M152.395,162.25l-10.683,10.683c-2.792,2.793-2.792,7.317,0,10.108
		c1.396,1.396,3.226,2.094,5.055,2.094s3.658-0.697,5.055-2.094l20.792-20.791H152.395z"/>
	<path style="fill:#994334;" d="M187.181,162.25l-10.684,10.683c-2.791,2.793-2.791,7.317,0,10.108
		c1.396,1.396,3.227,2.094,5.056,2.094s3.657-0.697,5.055-2.094L207.4,162.25H187.181z"/>
	<path style="fill:#994334;" d="M221.967,162.25l-10.684,10.683c-2.791,2.793-2.791,7.317,0,10.108
		c1.395,1.396,3.226,2.094,5.055,2.094s3.658-0.697,5.056-2.094l20.791-20.791H221.967z"/>
	<path style="fill:#994334;" d="M256.752,162.25l-10.683,10.683c-2.792,2.793-2.792,7.317,0,10.108
		c1.395,1.396,3.226,2.094,5.055,2.094s3.658-0.697,5.055-2.094l20.792-20.791H256.752z"/>
	<path style="fill:#994334;" d="M291.538,162.25l-10.684,10.683c-2.79,2.793-2.79,7.317,0,10.108
		c1.397,1.396,3.227,2.094,5.056,2.094s3.657-0.697,5.055-2.094l20.792-20.791H291.538z"/>
</g>
<path style="fill:#FFD00D;" d="M336.234,144.512c-0.098,0.003-0.192,0.015-0.29,0.015H80.53c-0.098,0-0.192-0.012-0.29-0.015
	c-2.434,1.923-4.003,4.895-4.003,8.238c0,5.799,4.701,10.5,10.5,10.5h243c5.799,0,10.5-4.701,10.5-10.5
	C340.237,149.406,338.669,146.435,336.234,144.512z"/>
<path style="fill:#F4BC4A;" d="M107,152.75c0-3.335,1.56-6.301,3.983-8.224H80.53c-0.098,0-0.192-0.012-0.29-0.015
	c-2.434,1.923-4.003,4.895-4.003,8.238c0,5.799,4.701,10.5,10.5,10.5H117.5C111.701,163.25,107,158.549,107,152.75z"/>
<path style="fill:#EF8318;" d="M80.53,90.25c-5.241,0-9.53,4.289-9.53,9.53v36.216c0,5.241,4.289,9.53,9.53,9.53h255.414
	c5.241,0,9.53-4.289,9.53-9.53V99.78c0-5.241-4.289-9.53-9.53-9.53H80.53z"/>
<path style="fill:#DB722C;" d="M102.525,135.996V99.78c0-5.241,4.289-9.53,9.53-9.53H80.53c-5.241,0-9.53,4.289-9.53,9.53v36.216
	c0,5.241,4.289,9.53,9.53,9.53h31.525C106.814,145.526,102.525,141.237,102.525,135.996z"/>
<path style="fill:#EA2A3D;" d="M437.428,321.396c-2.396-8.914-10.511-15.486-20.182-15.486h-26.208
	c-6.921-6.003-13.07-12.74-16.979-19.958c-10.238-18.901-33.087-2.697-44.49,19.958h-3.919c-9.671,0-17.786,6.572-20.182,15.486
	H437.428z"/>
<path style="fill:#D10D2A;" d="M316.829,321.396c3.451-6.809,10.499-11.486,18.654-11.486h3.919
	c7.755-15.407,20.802-27.817,31.577-28.244c-11.209-11.617-31.041,3.642-41.411,24.244h-3.919c-9.671,0-17.786,6.572-20.182,15.486
	H316.829z"/>
<rect x="300.77" y="346.93" style="fill:#FFFFFF;" width="141.82" height="31.32"/>
<g>
	<rect x="300.77" y="346.93" style="fill:#D9EAFC;" width="20.411" height="31.32"/>
	<path style="fill:#D9EAFC;" d="M449.475,342.934c0,2.75-2.25,5-5,5H298.883c-2.75,0-5-2.25-5-5v-17.538c0-2.75,2.25-5,5-5h145.592
		c2.75,0,5,2.25,5,5L449.475,342.934L449.475,342.934z"/>
</g>
<path style="fill:#C3DDF4;" d="M325,342.934v-17.538c0-2.75,2.25-5,5-5h-31.117c-2.75,0-5,2.25-5,5v17.538c0,2.75,2.25,5,5,5H330
	C327.25,347.934,325,345.684,325,342.934z"/>
<path style="fill:#293D7C;" d="M59.26,410.25c13.614,18.315,29.719,34.662,47.823,48.541h297.834
	c18.105-13.879,34.209-30.226,47.823-48.541H59.26z"/>
<path style="fill:#2E4C89;" d="M512,406.25c0,2.75-2.25,5-5,5H5c-2.75,0-5-2.25-5-5v-24c0-2.75,2.25-5,5-5h502c2.75,0,5,2.25,5,5
	V406.25z"/>
<path style="fill:#293D7C;" d="M40,406.25v-24c0-2.75,2.25-5,5-5H5c-2.75,0-5,2.25-5,5v24c0,2.75,2.25,5,5,5h40
	C42.25,411.25,40,409,40,406.25z"/>
<g>
</g>
<g>
</g>
<g>
</g>
<g>
</g>
<g>
</g>
<g>
</g>
<g>
</g>
<g>
</g>
<g>
</g>
<g>
</g>
<g>
</g>
<g>
</g>
<g>
</g>
<g>
</g>
<g>
</g>
</svg>
